g default 
v 5 13 3
v 6 13 3
v 5 14 3
v 6 14 3
v 5 14 2
v 6 14 2
v 5 13 2
v 6 13 2
v 4 13 4
v 5 13 4
v 4 14 4
v 5 14 4
v 4 14 3
v 5 14 3
v 4 13 3
v 5 13 3
v 4 13 5
v 5 13 5
v 4 14 5
v 5 14 5
v 4 14 4
v 5 14 4
v 4 13 4
v 5 13 4
vn 0 0 1
vn 0 0 1
vn 0 0 1
vn 0 0 1
vn 0 1 0
vn 0 1 0
vn 0 1 0
vn 0 1 0
vn 0 0 -1
vn 0 0 -1
vn 0 0 -1
vn 0 0 -1
vn 0 -1 0
vn 0 -1 0
vn 0 -1 0
vn 0 -1 0
vn 1 0 0
vn 1 0 0
vn 1 0 0
vn 1 0 0
vn -1 0 0
vn -1 0 0
vn -1 0 0
vn -1 0 0
vn 0 0 1
vn 0 0 1
vn 0 0 1
vn 0 0 1
vn 0 1 0
vn 0 1 0
vn 0 1 0
vn 0 1 0
vn 0 0 -1
vn 0 0 -1
vn 0 0 -1
vn 0 0 -1
vn 0 -1 0
vn 0 -1 0
vn 0 -1 0
vn 0 -1 0
vn 1 0 0
vn 1 0 0
vn 1 0 0
vn 1 0 0
vn -1 0 0
vn -1 0 0
vn -1 0 0
vn -1 0 0
vn 0 0 1
vn 0 0 1
vn 0 0 1
vn 0 0 1
vn 0 1 0
vn 0 1 0
vn 0 1 0
vn 0 1 0
vn 0 0 -1
vn 0 0 -1
vn 0 0 -1
vn 0 0 -1
vn 0 -1 0
vn 0 -1 0
vn 0 -1 0
vn 0 -1 0
vn 1 0 0
vn 1 0 0
vn 1 0 0
vn 1 0 0
vn -1 0 0
vn -1 0 0
vn -1 0 0
vn -1 0 0
s off
_
f 1//1 2//2 3//3 
f 3//3 2//2 4//4 
f 3//5 4//6 5//7 
f 5//7 4//6 6//8 
f 5//9 6//10 7//11 
f 7//11 6//10 8//12 
f 7//13 8//14 1//15 
f 1//15 8//14 2//16 
f 2//17 8//18 4//19 
f 4//19 8//18 6//20 
f 7//21 1//22 5//23 
f 5//23 1//22 3//24 

f 9//25 10//26 11//27 
f 11//27 10//26 12//28 
f 11//29 12//30 13//31 
f 13//31 12//30 14//32 
f 13//33 14//34 15//35 
f 15//35 14//34 16//36 
f 15//37 16//38 9//39 
f 9//39 16//38 10//40 
f 10//41 16//42 12//43 
f 12//43 16//42 14//44 
f 15//45 9//46 13//47 
f 13//47 9//46 11//48 

f 17//49 18//50 19//51 
f 19//51 18//50 20//52 
f 19//53 20//54 21//55 
f 21//55 20//54 22//56 
f 21//57 22//58 23//59 
f 23//59 22//58 24//60 
f 23//61 24//62 17//63 
f 17//63 24//62 18//64 
f 18//65 24//66 20//67 
f 20//67 24//66 22//68 
f 23//69 17//70 21//71 
f 21//71 17//70 19//72 
