# This file uses centimeters as units for non-parametric coordinates.

mtllib tree4.mtl
g default
v 0.317231 -0.098932 -0.103075
v 0.196060 -0.098932 -0.269853
v 0.000000 -0.098932 -0.333557
v -0.269853 -0.098932 -0.196060
v -0.333557 -0.098932 0.000000
v -0.269853 -0.098932 0.196060
v -0.196060 -0.098932 0.269853
v 0.000000 -0.098932 0.333557
v 0.269853 -0.098932 0.196060
v 0.333557 -0.098932 0.000000
v 0.196060 1.308012 -0.269853
v 0.000000 1.308012 -0.333557
v -0.196060 1.308012 -0.269853
v -0.269853 1.308012 -0.196060
v -0.333557 1.308012 0.000000
v -0.269853 1.308012 0.196060
v -0.196060 1.308012 0.269853
v 0.000000 1.308012 0.333557
v 0.196060 1.308012 0.269853
v 0.333557 1.308012 0.000000
v 0.317231 1.308012 -0.103075
vt 0.375000 0.312500
vt 0.375000 0.688440
vt 0.400000 0.312500
vt 0.400000 0.688440
vt 0.425000 0.312500
vt 0.425000 0.688440
vt 0.462500 0.312500
vt 0.450000 0.688440
vt 0.462500 0.688440
vt 0.487500 0.312500
vt 0.487500 0.688440
vt 0.512500 0.312500
vt 0.512500 0.688440
vt 0.525000 0.312500
vt 0.525000 0.688440
vt 0.550000 0.312500
vt 0.550000 0.688440
vt 0.587500 0.312500
vt 0.575000 0.688440
vt 0.612500 0.312500
vt 0.612500 0.688440
vt 0.625000 0.312500
vt 0.625000 0.688440
vt 0.648603 0.107966
vt 0.656250 0.156250
vt 0.591842 0.029841
vt 0.500000 0.000000
vt 0.373591 0.064409
vt 0.343750 0.156250
vt 0.373591 0.248091
vt 0.408159 0.282659
vt 0.500000 0.312500
vt 0.626409 0.248091
vt 0.648603 0.892034
vt 0.656250 0.843750
vt 0.591841 0.970159
vt 0.500000 1.000000
vt 0.408159 0.970159
vt 0.373591 0.935591
vt 0.343750 0.843750
vt 0.373591 0.751909
vt 0.408159 0.717341
vt 0.500000 0.687500
vt 0.591842 0.717341
vn 0.951057 0.000000 -0.309016
vn 0.809017 0.000000 -0.587785
vn 0.809017 0.000000 -0.587785
vn 0.809017 0.000000 -0.587785
vn 0.587785 0.000000 -0.809017
vn 0.809017 0.000000 -0.587785
vn 0.587785 0.000000 -0.809017
vn 0.309017 0.000000 -0.951057
vn 0.309017 0.000000 -0.951057
vn 0.309017 0.000000 -0.951057
vn -0.000000 0.000000 -1.000000
vn 0.309017 0.000000 -0.951057
vn 0.000000 0.000000 -1.000000
vn -0.309017 0.000000 -0.951056
vn -0.309017 0.000000 -0.951056
vn -0.309017 0.000000 -0.951056
vn -0.587785 0.000000 -0.809017
vn -0.309017 0.000000 -0.951056
vn -0.587786 0.000000 -0.809017
vn -0.809017 0.000000 -0.587785
vn -0.809017 0.000000 -0.587785
vn -0.809017 0.000000 -0.587785
vn -0.951056 0.000000 -0.309017
vn -0.951056 0.000000 -0.309017
vn -0.951056 0.000000 -0.309017
vn -1.000000 0.000000 -0.000000
vn -0.951056 0.000000 -0.309017
vn -1.000000 0.000000 0.000000
vn -0.951056 0.000000 0.309017
vn -0.951056 0.000000 0.309017
vn -0.951056 0.000000 0.309017
vn -0.809017 0.000000 0.587786
vn -0.951056 0.000000 0.309017
vn -0.809017 0.000000 0.587786
vn -0.587785 0.000000 0.809017
vn -0.809017 0.000000 0.587785
vn -0.809017 0.000000 0.587785
vn -0.587785 0.000000 0.809017
vn -0.587785 0.000000 0.809017
vn -0.587785 0.000000 0.809017
vn -0.309017 0.000000 0.951057
vn -0.309017 0.000000 0.951057
vn -0.309017 0.000000 0.951057
vn 0.000000 0.000000 1.000000
vn -0.309017 0.000000 0.951057
vn 0.000000 0.000000 1.000000
vn 0.309017 0.000000 0.951056
vn 0.309017 0.000000 0.951057
vn 0.309017 0.000000 0.951056
vn 0.587785 0.000000 0.809017
vn 0.309017 0.000000 0.951057
vn 0.809017 0.000000 0.587785
vn 0.951057 0.000000 0.309017
vn 0.951057 0.000000 0.309017
vn 0.951057 0.000000 0.309017
vn 1.000000 0.000000 0.000001
vn 0.951057 0.000000 0.309017
vn 1.000000 0.000000 0.000001
vn 0.951057 0.000000 -0.309016
vn 1.000000 0.000000 0.000001
vn 1.000000 0.000000 0.000001
vn 0.951057 0.000000 -0.309016
vn 0.951057 0.000000 -0.309016
vn 0.000000 -1.000000 0.000000
vn 0.000000 -1.000000 0.000000
vn 0.000000 -1.000000 0.000000
vn 0.000000 -1.000000 0.000000
vn 0.000000 -1.000000 0.000000
vn 0.000000 -1.000000 0.000000
vn 0.000000 -1.000000 0.000000
vn 0.000000 -1.000000 0.000000
vn 0.000000 -1.000000 0.000000
vn 0.000000 -1.000000 0.000000
vn 0.000000 -1.000000 0.000000
vn 0.000000 -1.000000 0.000000
vn 0.000000 -1.000000 0.000000
vn 0.000000 -1.000000 0.000000
vn 0.000000 -1.000000 0.000000
vn 0.000000 -1.000000 0.000000
vn 0.000000 -1.000000 0.000000
vn 0.000000 -1.000000 0.000000
vn 0.000000 -1.000000 0.000000
vn 0.000000 -1.000000 0.000000
vn 0.000000 -1.000000 0.000000
vn 0.000000 -1.000000 0.000000
vn 0.000000 -1.000000 0.000000
vn 0.000000 -1.000000 0.000000
vn 0.000000 1.000000 0.000000
vn 0.000000 1.000000 0.000000
vn 0.000000 1.000000 0.000000
vn 0.000000 1.000000 0.000000
vn 0.000000 1.000000 0.000000
vn 0.000000 1.000000 0.000000
vn 0.000000 1.000000 0.000000
vn 0.000000 1.000000 0.000000
vn 0.000000 1.000000 0.000000
vn 0.000000 1.000000 0.000000
vn 0.000000 1.000000 0.000000
vn 0.000000 1.000000 0.000000
vn 0.000000 1.000000 0.000000
vn 0.000000 1.000000 0.000000
vn 0.000000 1.000000 0.000000
vn 0.000000 1.000000 0.000000
vn 0.000000 1.000000 0.000000
vn 0.000000 1.000000 0.000000
vn 0.000000 1.000000 0.000000
vn 0.000000 1.000000 0.000000
vn 0.000000 1.000000 0.000000
vn 0.000000 1.000000 0.000000
vn 0.000000 1.000000 0.000000
vn 0.000000 1.000000 0.000000
vn 0.000000 1.000000 0.000000
vn 0.000000 1.000000 0.000000
vn 0.000000 1.000000 0.000000
s off
g tree4:pCylinder1
usemtl tree4:initialShadingGroup
f 21/2/1 1/1/2 11/4/3
f 1/1/4 2/3/5 11/4/6
f 11/4/7 2/3/8 12/6/9
f 2/3/10 3/5/11 12/6/12
f 12/6/13 3/5/14 13/8/15
f 3/5/16 4/7/17 13/8/18
f 13/8/19 4/7/20 14/9/21
f 14/9/22 4/7/23 15/11/24
f 4/7/25 5/10/26 15/11/27
f 15/11/28 5/10/29 16/13/30
f 5/10/31 6/12/32 16/13/33
f 6/12/34 7/14/35 16/13/36
f 16/13/37 7/14/38 17/15/39
f 17/15/40 7/14/41 18/17/42
f 7/14/43 8/16/44 18/17/45
f 18/17/46 8/16/47 19/19/48
f 8/16/49 9/18/50 19/19/51
f 19/19/52 9/18/53 20/21/54
f 9/18/55 10/20/56 20/21/57
f 10/20/58 1/22/59 20/21/60
f 20/21/61 1/22/62 21/23/63
f 3/27/64 2/26/65 1/24/66
f 3/27/67 1/24/68 4/28/69
f 5/29/70 4/28/71 1/24/72
f 5/29/73 1/24/74 6/30/75
f 7/31/76 6/30/77 1/24/78
f 7/31/79 1/24/80 8/32/81
f 8/32/82 1/24/83 9/33/84
f 9/33/85 1/24/86 10/25/87
f 21/34/88 11/36/89 12/37/90
f 12/37/91 13/38/92 21/34/93
f 13/38/94 14/39/95 21/34/96
f 21/34/97 14/39/98 15/40/99
f 15/40/100 16/41/101 21/34/102
f 16/41/103 17/42/104 21/34/105
f 17/42/106 18/43/107 21/34/108
f 18/43/109 19/44/110 21/34/111
f 19/44/112 20/35/113 21/34/114
